:SAMPLES-PER-SECOND 30
:FULLY-SPECIFIED
:DEGREES
196
root  -60.9408 37.9813 -0.139014 168.654 -67.3186 -169.902
RightUpLeg  -25.1178 -18.3931 14.2097
RightLeg  28.7421 -6.94487 -4.35345
RightFoot  -4.38186 0.746585 -12.6748
RightToes  -4.65663e-010 0 -3.6325e-017
Spine  8.53958 -1.84707 8.78174
Spine1  5.89362 -1.70042 3.22675
HEad  -29.8191 -1.10404 -1.09779
LeftShoulder1  -0.62148 4.96152 -36.4144
LeftArm  0.38303 5.00925 -40.8804
LeftForeArm  35.0001 -8.31191 -9.9466
LeftHand  -0.115357 9.60941 -1.67318
RightShoulder  -1.05551 -6.39389 29.9776
RightArm  11.7753 -8.7739 39.8879
RightForeArm  11.3077 16.2587 4.39499
RightHand  -0.023307 4.66009 -0.557506
LeftUpLeg  8.35987 14.2889 4.62518
LeftLeg  44.591 -0.291088 0.129828
LeftFoot  -3.27732 0.974087 -14.1163
LeftToes  8.74931e-010 -1.05764e-010 1.2659e-011
197
root  -61.9315 38.0399 -0.289354 169.55 -63.2323 -171.004
RightUpLeg  -23.2035 -15.336 13.7235
RightLeg  29.805 -6.16333 -4.05809
RightFoot  -5.84578 0.522946 -11.6898
RightToes  -4.65663e-010 0 -3.6325e-017
Spine  8.60808 -1.60361 9.04829
Spine1  6.22388 -1.24233 3.49618
HEad  -30.2605 -1.04217 -0.872202
LeftShoulder1  -0.605061 4.92528 -36.3558
LeftArm  0.0217169 4.35487 -40.9538
LeftForeArm  36.5245 -9.27712 -9.4351
LeftHand  -0.122867 9.18384 -2.02637
RightShoulder  -0.981937 -6.21527 29.6598
RightArm  13.4145 -8.23707 41.4168
RightForeArm  10.0856 21.6688 4.26354
RightHand  0.0538757 4.2499 0.362077
LeftUpLeg  2.88673 14.3367 4.50866
LeftLeg  54.0905 -0.949699 -1.019
LeftFoot  8.08171 1.9657 -11.5883
LeftToes  8.74931e-010 -1.05764e-010 1.2659e-011
198
root  -62.8667 38.1673 -0.429456 169.418 -59.3823 -171.259
RightUpLeg  -20.7046 -13.2737 13.5011
RightLeg  29.7001 -4.93681 -3.2976
RightFoot  -6.82248 0.404224 -11.3497
RightToes  -4.65663e-010 0 -3.6325e-017
Spine  8.9796 -1.85787 9.81034
Spine1  6.2342 -1.06374 2.95877
HEad  -29.4022 0.414803 -0.362871
LeftShoulder1  -0.522703 4.75479 -35.5212
LeftArm  0.413465 4.28757 -41.2579
LeftForeArm  33.6097 -10.3348 -9.07497
LeftHand  -0.05429 8.99627 -0.164168
RightShoulder  -0.991934 -6.2211 29.9036
RightArm  15.9908 -6.48408 43.1385
RightForeArm  11 26.2786 5.03906
RightHand  0.0044222 3.93531 -0.204598
LeftUpLeg  -1.85486 13.7908 5.31225
LeftLeg  61.8387 -2.32795 -4.08254
LeftFoot  5.79591 1.71618 -11.6152
LeftToes  8.74931e-010 -1.05764e-010 1.2659e-011
199
root  -63.8819 38.4052 -0.529351 170.736 -54.7466 -172.962
RightUpLeg  -18.0331 -9.9914 12.3601
RightLeg  29.0305 -3.70013 -2.47787
RightFoot  -7.52291 0.298197 -10.4324
RightToes  -4.65663e-010 0 -3.6325e-017
Spine  8.88413 -1.83389 10.7664
Spine1  5.964 -0.381484 0.827358
HEad  -27.7158 2.37528 -0.266876
LeftShoulder1  -0.385287 4.45656 -34.3291
LeftArm  2.59249 3.77099 -40.768
LeftForeArm  28.3045 -11.4961 -9.02145
LeftHand  -0.0824507 9.4959 -0.830899
RightShoulder  -1.14903 -6.55305 31.1672
RightArm  18.5293 -4.54016 44.415
RightForeArm  14.0235 30.6009 5.90601
RightHand  -0.0150989 4.4889 -0.464638
LeftUpLeg  -6.07351 13.2684 5.47558
LeftLeg  66.1525 -2.57642 -5.67927
LeftFoot  3.23094 1.50069 -11.8493
LeftToes  8.74931e-010 -1.05764e-010 1.2659e-011
200
root  -64.9215 38.64 -0.601394 172.015 -49.817 -174.445
RightUpLeg  -15.7268 -6.87845 11.1378
RightLeg  28.3169 -2.02086 -1.41809
RightFoot  -8.04188 0.22724 -9.74111
RightToes  -4.65663e-010 0 -3.6325e-017
Spine  8.27452 -1.67355 10.6031
Spine1  6.17216 -0.184144 0.714757
HEad  -25.0714 5.49425 -1.66037
LeftShoulder1  -0.495018 4.72334 -34.4205
LeftArm  2.8125 3.35675 -40.3489
LeftForeArm  25.7357 -12.9859 -8.26866
LeftHand  -0.0527514 9.12254 -0.0437206
RightShoulder  -1.0206 -6.25456 30.5173
RightArm  20.0838 -3.38169 46.6625
RightForeArm  16.7517 34.7189 6.8047
RightHand  0.0355891 5.04997 0.0869053
LeftUpLeg  -9.85752 12.3392 5.87661
LeftLeg  67.5861 -2.57436 -6.13216
LeftFoot  2.43389 1.26222 -10.5519
LeftToes  8.74931e-010 -1.05764e-010 1.2659e-011
